<svg width="82" height="21" viewBox="0 0 82 21" fill="none" xmlns="http://www.w3.org/2000/svg">
<path fill-rule="evenodd" clip-rule="evenodd" d="M12 2.5H8V6.5H4H0V10.5V14.5V18.5H4H8V14.5H12H16V10.5V6.5V2.5H12ZM4 14.5H8V10.5H12V6.5H8V10.5H4V14.5Z" fill="white"/>
<path d="M33.088 12.76C33.088 13.448 32.9067 14.056 32.544 14.584C32.1867 15.112 31.672 15.5253 31 15.824C30.328 16.1227 29.52 16.272 28.576 16.272C27.5307 16.272 26.6533 16.12 25.944 15.816C25.24 15.5067 24.656 15.1253 24.192 14.672L25.52 13.2C25.9307 13.5573 26.384 13.8347 26.88 14.032C27.376 14.224 27.92 14.32 28.512 14.32C28.88 14.32 29.2027 14.2667 29.48 14.16C29.7573 14.0533 29.9733 13.8987 30.128 13.696C30.2827 13.4933 30.36 13.248 30.36 12.96C30.36 12.688 30.2987 12.4587 30.176 12.272C30.0533 12.0853 29.8453 11.9173 29.552 11.768C29.264 11.6187 28.8613 11.4667 28.344 11.312C27.48 11.0453 26.784 10.752 26.256 10.432C25.7333 10.112 25.352 9.74133 25.112 9.32C24.8773 8.89867 24.76 8.408 24.76 7.848C24.76 7.17067 24.9467 6.592 25.32 6.112C25.6987 5.632 26.2053 5.26667 26.84 5.016C27.4747 4.76 28.1733 4.632 28.936 4.632C29.7947 4.632 30.552 4.75733 31.208 5.008C31.864 5.25333 32.432 5.60533 32.912 6.064L31.672 7.488C31.2987 7.17333 30.896 6.94133 30.464 6.792C30.032 6.63733 29.592 6.56 29.144 6.56C28.8133 6.56 28.5227 6.60267 28.272 6.688C28.0213 6.768 27.8267 6.888 27.688 7.048C27.5493 7.208 27.48 7.408 27.48 7.648C27.48 7.88267 27.5467 8.08 27.68 8.24C27.8133 8.4 28.0453 8.552 28.376 8.696C28.7067 8.83467 29.1653 8.99733 29.752 9.184C30.4507 9.39733 31.048 9.65333 31.544 9.952C32.0453 10.2453 32.4267 10.616 32.688 11.064C32.9547 11.512 33.088 12.0773 33.088 12.76ZM41.8658 13.552C41.8658 13.872 41.9084 14.104 41.9938 14.248C42.0844 14.392 42.2284 14.5013 42.4258 14.576L41.9058 16.24C41.4044 16.192 40.9804 16.0827 40.6338 15.912C40.2924 15.736 40.0231 15.472 39.8258 15.12C39.5004 15.5093 39.0844 15.8 38.5778 15.992C38.0711 16.1787 37.5538 16.272 37.0258 16.272C36.1511 16.272 35.4524 16.024 34.9298 15.528C34.4124 15.0267 34.1538 14.384 34.1538 13.6C34.1538 12.6773 34.5138 11.9653 35.2338 11.464C35.9591 10.9627 36.9778 10.712 38.2898 10.712H39.4338V10.392C39.4338 9.94933 39.2898 9.62133 39.0018 9.408C38.7191 9.19467 38.3031 9.088 37.7538 9.088C37.4818 9.088 37.1324 9.128 36.7058 9.208C36.2791 9.28267 35.8524 9.392 35.4258 9.536L34.8418 7.856C35.3911 7.648 35.9618 7.49067 36.5538 7.384C37.1511 7.27733 37.6844 7.224 38.1538 7.224C39.4178 7.224 40.3511 7.48267 40.9538 8C41.5618 8.512 41.8658 9.25333 41.8658 10.224V13.552ZM37.8978 14.464C38.1698 14.464 38.4551 14.384 38.7538 14.224C39.0524 14.0587 39.2791 13.8267 39.4338 13.528V12.152H38.8098C38.1058 12.152 37.5884 12.2613 37.2578 12.48C36.9271 12.6933 36.7618 13.008 36.7618 13.424C36.7618 13.7493 36.8604 14.0053 37.0578 14.192C37.2604 14.3733 37.5404 14.464 37.8978 14.464ZM48.8115 14.28C49.1582 14.28 49.4835 14.2133 49.7875 14.08C50.0968 13.9413 50.4035 13.7653 50.7075 13.552L51.8355 15.152C51.4622 15.472 51.0062 15.7387 50.4675 15.952C49.9342 16.1653 49.3368 16.272 48.6755 16.272C47.7635 16.272 46.9795 16.0853 46.3235 15.712C45.6675 15.3333 45.1635 14.8107 44.8115 14.144C44.4595 13.472 44.2835 12.6933 44.2835 11.808C44.2835 10.9227 44.4622 10.136 44.8195 9.448C45.1822 8.75467 45.6942 8.21067 46.3555 7.816C47.0222 7.42133 47.8115 7.224 48.7235 7.224C49.3688 7.224 49.9422 7.31467 50.4435 7.496C50.9502 7.672 51.4142 7.936 51.8355 8.288L50.7395 9.808C50.4515 9.60533 50.1475 9.448 49.8275 9.336C49.5075 9.224 49.1742 9.168 48.8275 9.168C48.2568 9.168 47.7955 9.37067 47.4435 9.776C47.0968 10.176 46.9235 10.8533 46.9235 11.808C46.9235 12.432 47.0062 12.9253 47.1715 13.288C47.3368 13.6453 47.5608 13.9013 47.8435 14.056C48.1315 14.2053 48.4542 14.28 48.8115 14.28ZM56.4293 3.88V8.344C56.7866 7.96533 57.1733 7.68533 57.5893 7.504C58.0106 7.31733 58.4559 7.224 58.9253 7.224C59.6826 7.224 60.2613 7.44533 60.6613 7.888C61.0613 8.33067 61.2613 8.95467 61.2613 9.76V16H58.7333V10.464C58.7333 9.952 58.6746 9.59467 58.5573 9.392C58.4453 9.18933 58.2319 9.088 57.9173 9.088C57.7413 9.088 57.5679 9.13067 57.3973 9.216C57.2319 9.296 57.0693 9.41333 56.9093 9.568C56.7493 9.72267 56.5893 9.90667 56.4293 10.12V16H53.9013V4.128L56.4293 3.88ZM68.687 7.504V14.272H70.847V16H63.751V14.272H66.159V9.232H63.831V7.504H68.687ZM67.159 3.056C67.5963 3.056 67.9537 3.192 68.231 3.464C68.5083 3.736 68.647 4.07467 68.647 4.48C68.647 4.88533 68.5083 5.22667 68.231 5.504C67.9537 5.776 67.5963 5.912 67.159 5.912C66.7163 5.912 66.3537 5.776 66.071 5.504C65.7937 5.22667 65.655 4.88533 65.655 4.48C65.655 4.07467 65.7937 3.736 66.071 3.464C66.3537 3.192 66.7163 3.056 67.159 3.056ZM73.0888 16V7.504H75.2968L75.4728 8.488C75.8514 8.06133 76.2514 7.744 76.6727 7.536C77.0941 7.328 77.5741 7.224 78.1128 7.224C78.8381 7.224 79.4088 7.44533 79.8248 7.888C80.2408 8.33067 80.4488 8.95467 80.4488 9.76V16H77.9208V10.488C77.9208 10.1413 77.8968 9.86667 77.8488 9.664C77.8008 9.456 77.7154 9.30933 77.5928 9.224C77.4754 9.13333 77.3128 9.088 77.1048 9.088C76.9288 9.088 76.7554 9.128 76.5848 9.208C76.4194 9.28267 76.2568 9.392 76.0968 9.536C75.9368 9.68 75.7768 9.85333 75.6168 10.056V16H73.0888Z" fill="white"/>
</svg>
